<svg xmlns="http://www.w3.org/2000/svg" xmlns:xlink="http://www.w3.org/1999/xlink" viewBox="0 0 597.13 388.59"><defs><style>.cls-1{fill:#407ffe;}.cls-2{fill:#eaeaea;}.cls-13,.cls-15,.cls-16,.cls-17,.cls-3{fill:none;stroke-miterlimit:10;}.cls-13,.cls-15,.cls-16,.cls-3{stroke:#fefef4;}.cls-3{stroke-width:1.94px;}.cls-4{fill:url(#Gradiente_sem_nome_26);}.cls-5{fill:url(#Gradiente_sem_nome_26-2);}.cls-6{fill:#c1c1c1;}.cls-7{fill:url(#Gradiente_sem_nome_26-3);}.cls-8{fill:url(#Gradiente_sem_nome_26-4);}.cls-9{fill:url(#Gradiente_sem_nome_26-5);}.cls-10{fill:url(#Gradiente_sem_nome_26-6);}.cls-11{fill:url(#Gradiente_sem_nome_26-7);}.cls-12{fill:#383838;}.cls-13{stroke-width:1.48px;}.cls-14,.cls-18{fill:#fefef4;}.cls-15{stroke-width:4.52px;}.cls-16{stroke-width:1.43px;}.cls-17{stroke:#000;stroke-width:1.55px;}.cls-18{font-size:87.36px;font-family:MyriadHebrew-Regular, Myriad Hebrew;}</style><linearGradient id="Gradiente_sem_nome_26" x1="281.28" y1="231.98" x2="287.78" y2="231.98" gradientUnits="userSpaceOnUse"><stop offset="0" stop-color="#424897"/><stop offset="1" stop-color="#75509b"/></linearGradient><linearGradient id="Gradiente_sem_nome_26-2" x1="288.31" y1="237.6" x2="292.4" y2="237.6" xlink:href="#Gradiente_sem_nome_26"/><linearGradient id="Gradiente_sem_nome_26-3" x1="285.18" y1="232.75" x2="291.96" y2="232.75" xlink:href="#Gradiente_sem_nome_26"/><linearGradient id="Gradiente_sem_nome_26-4" x1="291.96" y1="238.45" x2="295.48" y2="238.45" xlink:href="#Gradiente_sem_nome_26"/><linearGradient id="Gradiente_sem_nome_26-5" x1="464.96" y1="232.67" x2="470.69" y2="232.67" xlink:href="#Gradiente_sem_nome_26"/><linearGradient id="Gradiente_sem_nome_26-6" x1="458.77" y1="237.99" x2="460.88" y2="237.99" xlink:href="#Gradiente_sem_nome_26"/><linearGradient id="Gradiente_sem_nome_26-7" x1="460.88" y1="233.13" x2="467.48" y2="233.13" xlink:href="#Gradiente_sem_nome_26"/></defs><g id="OBJECTS"><rect class="cls-1" x="558.61" y="88.94" width="14.01" height="13.57" rx="3.41"/><polygon class="cls-1" points="67.37 310.67 31.13 329.44 41.57 334.5 28.61 350 38.72 358.28 51.25 341.64 59.64 350.64 67.37 310.67"/><rect class="cls-1" x="38.43" y="146.07" width="25.67" height="24.87" rx="6.26"/><rect class="cls-2" x="117.14" y="50.22" width="355.31" height="298.33" rx="7.15"/><line class="cls-3" x1="117.14" y1="86.12" x2="472.45" y2="86.12"/><text x="-82.45" y="-60.9"/><circle class="cls-3" cx="147.18" cy="68.54" r="5.01"/><circle class="cls-3" cx="166.65" cy="68.54" r="5.01"/><circle class="cls-3" cx="186.11" cy="68.54" r="5.01"/><path class="cls-4" d="M287.78,235.14c-2.67-2.57-4.93-4.78-6.5-6.33Z" transform="translate(-82.45 -60.9)"/><path class="cls-5" d="M292.4,239.54c-1.43-1.35-2.8-2.65-4.09-3.89Z" transform="translate(-82.45 -60.9)"/><path class="cls-6" d="M527.55,226c16.3,5.65,34.27,3.86,34.27,3.86-23.66,13.56-60.34,17.69-80.83,18.94a49.68,49.68,0,0,1-14.77,2.75s-9.81,6.79-7.63,23.56c0,0-53.93,33.55-57.74,42.33L397,360.19l7.62-38.74s24,2.4,47.39-24.75c0,0,1.09,19.56-20.7,41.52,0,0-16.34,31.14-18.52,75.47l6,11.18s-18.52,16.37-30,15.58c0,0,13.62-8.39,12-24,0,0-19.65,7.59-20.45,27.16,0,0-11.15,13.18-29.67,0,0,0-1.09-22.36-18.52-27.95,0,0-4.36,12.38,10.89,23.95a55.49,55.49,0,0,1-29.42-14.37l5.46-11.58s-6.55-59.1-15.8-71.88c0,0-18.52-18-25.07-45.11,0,0,22.89,23.15,47.4,25.95l8.17,37.13-2.73-42.32s-18.52-21.57-58.28-41.93c0,0,6-13.58-7.09-24.36a61.29,61.29,0,0,1-12.83-2.53c-19.61-.94-58.08-4.6-82.77-18.76,0,0,18,1.79,34.28-3.86-1.14.21-43.19,7.75-61.92-12.82,0,0,27-140.91,57.62-145.52,0,0-6.5,70.16,0,107.24,0,0-13.66,15.64-34.64,16.83,0,0,22,3,41-15.49,0,0,18.32-9.23,34.31.6,0,0,1.11,1.31,3,3.5s4.91,5.69,8.34,9.57l.68.78c1.65,1.87,3.42,3.84,5.25,5.88,13.13,14.62,29.72,32.06,34.36,32.4,0,0-16.87-15.83-30.4-31.37l-4.53-5.34-8.69-11.91a31.8,31.8,0,0,1-2.68-5.3s20.65-8.94,39,0l1.18,1.21c2.09,2.1,15,12.15,20.59,16.34L293,178.91l-2.35-3.47c5-1,10.26-2.12,15.91-3.48,0,0,8.72-1.35,13.08,0,0,0,20.7,10.13,43,10.53l1,66.24.54,35.52L366,393.33l1.7-109.1.55-35.5,1-66.24s27.24-1.2,45.76-9.59c0,0,7.74-3.39,26.21,2.67l-2.16,3.18c-6.08,7.11-20.91,16.53-21.44,16.87,5.25-1.42,10.93-4.91,15.87-8.64a117.61,117.61,0,0,0,11.84-10.3c1-1,1.59-1.61,1.59-1.61,18.31-8.94,39,0,39,0a34.89,34.89,0,0,1-3.19,6.11l-8.47,11.44-2.72,3.24C457.76,211.94,439.59,229,439.59,229c4.8-.36,22.41-19,35.74-33.94l3.46-3.88c.22-.26.45-.51.67-.76,2.86-3.24,5.39-6.15,7.36-8.43.31-.34.6-.68.87-1,2.21-2.57,3.52-4.12,3.52-4.12,16-9.83,34.31-.6,34.31-.6,19,18.47,41,15.49,41,15.49-21-1.19-34.63-16.83-34.63-16.83,6.49-37.08,0-107.24,0-107.24,30.64,4.61,57.62,145.52,57.62,145.52C570.73,233.77,528.69,226.23,527.55,226Z" transform="translate(-82.45 -60.9)"/><path class="cls-7" d="M292,236.69a73.61,73.61,0,0,1-6.78-7.87Z" transform="translate(-82.45 -60.9)"/><path class="cls-8" d="M295.48,240.22c-1.21-1.19-2.4-2.37-3.52-3.53Z" transform="translate(-82.45 -60.9)"/><path class="cls-9" d="M470.69,229.88c-1.53,1.51-3.5,3.43-5.73,5.57Z" transform="translate(-82.45 -60.9)"/><path class="cls-10" d="M460.88,236.91c-.68.72-1.4,1.43-2.11,2.15Z" transform="translate(-82.45 -60.9)"/><path class="cls-11" d="M467.48,229.35a78.17,78.17,0,0,1-6.6,7.56Z" transform="translate(-82.45 -60.9)"/><path class="cls-6" d="M527.83,67.68s2.5,28.59,2.35,37.42c0,0-10.74-29.9-28.27-18.25,0,0-2.87,10.34-22.74,6.65,0,0-3.14,16-17.45,3.94,0,0-6.71-16.18,5.81-28.7C467.53,68.74,491.14,51.83,527.83,67.68Z" transform="translate(-82.45 -60.9)"/><path class="cls-6" d="M205.38,67.68S202.87,96.27,203,105.1c0,0,10.73-29.9,28.27-18.25,0,0,2.86,10.34,22.74,6.65,0,0,3.13,16,17.45,3.94,0,0,6.7-16.18-5.81-28.7C265.68,68.74,242.07,51.83,205.38,67.68Z" transform="translate(-82.45 -60.9)"/><rect class="cls-12" y="207.14" width="201.26" height="87.64" rx="10.35"/><path class="cls-13" d="M106.85,284.32a3.81,3.81,0,1,1-3.81-3.81A3.81,3.81,0,0,1,106.85,284.32Z" transform="translate(-82.45 -60.9)"/><circle class="cls-13" cx="35.41" cy="223.42" r="3.81"/><circle class="cls-13" cx="50.22" cy="223.42" r="3.81"/><line class="cls-13" y1="237.84" x2="201.26" y2="237.84"/><rect class="cls-12" x="422.15" y="6.08" width="105.48" height="89.82" rx="12.24"/><path class="cls-14" d="M550.68,122.11a18.23,18.23,0,1,1,18.23-18.23A18.24,18.24,0,0,1,550.68,122.11Zm0-32.32a14.1,14.1,0,1,0,14.1,14.09A14.1,14.1,0,0,0,550.68,89.79Z" transform="translate(-82.45 -60.9)"/><rect class="cls-14" x="562.72" y="114.22" width="4.13" height="7.61" transform="translate(-0.48 373.03) rotate(-45)"/><rect class="cls-14" x="563.37" y="122.47" width="20.84" height="9.13" rx="2.89" transform="translate(807.26 561.69) rotate(-135)"/><rect class="cls-1" x="25.54" width="74.82" height="67.74" rx="14.13"/><path class="cls-14" d="M145.4,109.37a15.85,15.85,0,1,1,15.84-15.85A15.87,15.87,0,0,1,145.4,109.37Zm0-26.94a11.09,11.09,0,1,0,11.08,11.09A11.1,11.1,0,0,0,145.4,82.43Z" transform="translate(-82.45 -60.9)"/><line class="cls-15" x1="72.29" y1="21.53" x2="54.12" y2="43.7"/><rect class="cls-1" x="402.39" y="154.13" width="194.73" height="151.93" rx="13.05"/><circle class="cls-16" cx="422.55" cy="168.47" r="3.69"/><circle class="cls-16" cx="436.89" cy="168.47" r="3.69"/><circle class="cls-16" cx="451.24" cy="168.47" r="3.69"/><line class="cls-16" x1="402.39" y1="183.87" x2="597.13" y2="183.87"/><path class="cls-17" d="M395.81,303.37" transform="translate(-82.45 -60.9)"/><path class="cls-17" d="M332.52,306.1" transform="translate(-82.45 -60.9)"/><text class="cls-18" transform="translate(426.24 266.39) scale(1.14 1)">404</text></g></svg>