<svg id="Camada_1" data-name="Camada 1" xmlns="http://www.w3.org/2000/svg" viewBox="0 0 128 132.73"><defs><style>.cls-1{fill:#0f0f0f;}.cls-2,.cls-3{stroke:#4a0fce;stroke-miterlimit:10;stroke-width:2px;}.cls-3{fill:none;}</style></defs><rect class="cls-1" y="2.67" width="128" height="128"/><path class="cls-2" d="M63.38,128.53,37,97.14,9.21,83.31,17,50.3,9.11,1.77,44.52,32.7l40.1.06L118.89,1.2l-7.55,49.1,7.45,33L90.7,97ZM10,83l27.51,13.7,0,0,25.88,30.79,26.85-31,.06,0L118.05,83l-7.39-32.7v0L118,2.9l-33,30.42h-.15l-40.52,0L10.05,3.41l7.63,46.91Z" transform="translate(0 1.47)"/><path class="cls-3" d="M63.44,120.67,52.56,75.61l-34.21-25L44.24,33.27l8.87,42.39h0l10.3,24.81,11.3-24.81.15-.14L84.1,33.25l26.3,16.44L75.48,75.82Zm-10-44.15,10,49.92,11-48.83-11,24.56ZM85,33.55,75.67,74.94l34.8-24.62ZM17.88,50.32,52.17,73.93l-8-40.44Z" transform="translate(0 1.47)"/><polygon class="cls-2" points="117.26 83.99 62.4 44.3 9.9 83.19 9.9 82.33 62.39 43.55 117.92 83.19 117.26 83.99"/><polygon class="cls-2" points="70.01 121.28 70.01 121.28 91.36 65.68 36.05 65.2 57.12 121.6 56.86 121.28 35.13 64.62 92.28 65.12 92.14 65.49 70.01 121.28"/></svg>