<svg id="Camada_1" data-name="Camada 1" xmlns="http://www.w3.org/2000/svg" xmlns:xlink="http://www.w3.org/1999/xlink" viewBox="0 0 128 133"><defs><style>.cls-1{fill:url(#Gradiente_sem_nome_10);}.cls-2{fill:#e6e5ea;}</style><linearGradient id="Gradiente_sem_nome_10" x1="0.33" y1="66.5" x2="127.67" y2="66.5" gradientUnits="userSpaceOnUse"><stop offset="0" stop-color="#5408ff"/><stop offset="1" stop-color="#af41ff"/></linearGradient></defs><rect class="cls-1" x="0.33" width="127.34" height="133"/><path class="cls-2" d="M32.38,47.22c-1-1.13-1.81-2.11-2.38-2.79Z" transform="translate(-1 -0.76)"/><path class="cls-2" d="M34.08,49.16l-1.5-1.71Z" transform="translate(-1 -0.76)"/><path class="cls-2" d="M111.27,57.75a25.51,25.51,0,0,0,9.81,1.13c-6.77,4-17.28,5.17-23.15,5.53a13.9,13.9,0,0,1-4.23.8s-2.8,2-2.18,6.88c0,0-15.44,9.8-16.54,12.36L73.89,96.93l2.19-11.31s6.86.7,13.57-7.23c0,0,.31,5.71-5.93,12.12a58.81,58.81,0,0,0-5.3,22l1.71,3.26s-5.3,4.78-8.58,4.55a7.78,7.78,0,0,0,3.43-7s-5.62,2.22-5.85,7.93c0,0-3.19,3.85-8.5,0,0,0-.31-6.53-5.3-8.16,0,0-1.25,3.61,3.12,7A15.73,15.73,0,0,1,50,115.93l1.56-3.38s-1.87-17.26-4.52-21a30.11,30.11,0,0,1-7.18-13.17S46.44,85.15,53.46,86L55.8,96.81,55,84.45s-5.31-6.29-16.7-12.24a6.22,6.22,0,0,0-2-7.11,17.48,17.48,0,0,1-3.67-.74C27,64.09,16,63,8.92,58.88a25.51,25.51,0,0,0,9.81-1.13C18.41,57.82,6.36,60,1,54c0,0,7.73-41.14,16.5-42.48,0,0-1.86,20.48,0,31.31a15.49,15.49,0,0,1-9.92,4.91,14.94,14.94,0,0,0,11.73-4.52s5.25-2.7,9.83.17l.86,1c.57.68,1.4,1.66,2.38,2.79l.2.23,1.5,1.71c3.76,4.27,8.51,9.36,9.84,9.46,0,0-4.83-4.62-8.7-9.16l-1.3-1.56-2.49-3.47a9.63,9.63,0,0,1-.77-1.55s5.92-2.61,11.16,0l.34.35c.6.62,4.3,3.55,5.9,4.77l-4-4-.67-1c1.42-.29,2.94-.62,4.56-1a11.29,11.29,0,0,1,3.74,0,32.78,32.78,0,0,0,12.32,3.08l.3,19.34.15,10.36L65,106.6l.48-31.85.16-10.36.3-19.34s7.8-.35,13.1-2.8c0,0,2.22-1,7.51.78l-.62.92c-1.74,2.08-6,4.83-6.14,4.93a14.38,14.38,0,0,0,4.54-2.52,33.89,33.89,0,0,0,3.39-3l.46-.47c5.24-2.61,11.16,0,11.16,0a10.38,10.38,0,0,1-.91,1.78L96,48l-.78,1c-3.94,4.69-9.14,9.67-9.14,9.67,1.37-.1,6.42-5.56,10.24-9.91.33-.39.67-.77,1-1.13.06-.07.12-.15.19-.22.82-1,1.54-1.8,2.1-2.46a3.31,3.31,0,0,0,.25-.3c.64-.75,1-1.2,1-1.2,4.58-2.87,9.83-.17,9.83-.17a14.94,14.94,0,0,0,11.73,4.52,15.49,15.49,0,0,1-9.92-4.91c1.86-10.83,0-31.31,0-31.31C121.27,12.87,129,54,129,54,123.64,60,111.6,57.82,111.27,57.75Z" transform="translate(-1 -0.76)"/><path class="cls-2" d="M33.92,47.9a31.54,31.54,0,0,1-2.49-3.47Z" transform="translate(-1 -0.76)"/><path class="cls-2" d="M35.22,49.46c-.45-.52-.89-1-1.3-1.56Z" transform="translate(-1 -0.76)"/><path class="cls-2" d="M99.6,44.9c-.56.66-1.28,1.51-2.1,2.46Z" transform="translate(-1 -0.76)"/><path class="cls-2" d="M96,48c-.25.32-.51.63-.78,1Z" transform="translate(-1 -0.76)"/><path class="cls-2" d="M98.43,44.66A34.46,34.46,0,0,1,96,48Z" transform="translate(-1 -0.76)"/><path class="cls-2" d="M111.35,11.53s.72,8.34.67,10.92c0,0-3.07-8.73-8.09-5.33,0,0-.82,3-6.52,1.94,0,0-.89,4.67-5,1.16,0,0-1.92-4.73,1.66-8.38C94.08,11.84,100.84,6.9,111.35,11.53Z" transform="translate(-1 -0.76)"/><path class="cls-2" d="M19,11.53s-.72,8.34-.67,10.92c0,0,3.07-8.73,8.09-5.33,0,0,.82,3,6.51,1.94,0,0,.9,4.67,5,1.16,0,0,1.92-4.73-1.66-8.38C36.28,11.84,29.51,6.9,19,11.53Z" transform="translate(-1 -0.76)"/></svg>